# xmcd
#
# Track frame offsets:
#	183
#	13463
#	25458
#	36690
#	45463
#	56653
#	71785
#	87310
#	98488
#	108470
#	125428
#	137093
#	147110
#	164628
#	182605
#	193640
#	205815
#	218690
#
# Disc length: 3116 seconds
#
# Revision: 0
# Processed by: cddbd v1.5.1PL0 Copyright (c) Steve Scherf et al.
# Submitted via: dBpowerAMP V4.0
#
DISCID=100c2a12
DTITLE=Various Artist - Super Bastringues (Pour Noces Et Banquets)
DYEAR=1988
DGENRE=Fox Marche
TTITLE0=Super Ambiance (Polka, Marche) - Grand Jojo
TTITLE1=Le Bal Tyrolien (Marche) - Grand Jojo
TTITLE2=Le Travail C'est La Santée (Marche) - Aimable et son orchestre
TTITLE3=C.o.n.s.t.a.n.t.i.n.o.p.l.e (Marche) - Jacky Noguez et son ensemble
TTITLE4=L'auberge Du Cheval Blanc (Fox marche) - Billy Mc Fury and his Bourbon Street Boy
TTITLE5=Riquita (Fox marche) - Georgette Plana
TTITLE6=Tonton Cristobal ( Fox Marche) - Pierre Perret
TTITLE7=On A L'Beguin Pour Celestin (Fox marche) - Grand Jojo
TTITLE8=Le Trompette En Bois  - Jacky Noguez et son ensemble
TTITLE9=Zaza (Fox Marche) - Georgette Plana
TTITLE10=Et Vlan Passe Moi L'éponge (Marche) - Aimable et son orchestre
TTITLE11=Paulette Reine Des paupiettes (Paso Doble) - les Charlots
TTITLE12=La Chenille (Marche) - La Bande à Basile
TTITLE13=Chantez Français, Dansez Français (Fox marche) - La Bande à Basile
TTITLE14=Rosalie Est partie (Fox Marche) - Jacky Noguez et son ensemble
TTITLE15=La Bouteille (Marche) - Aimable et son orchestre
TTITLE16=Les Filles Ca ma Tuera (marche) - Pierre Perret
TTITLE17=On A Soif (Marche) - Grand Jojo
EXTD=Fox Marches
EXTT0=
EXTT1=
EXTT2=
EXTT3=
EXTT4=
EXTT5=
EXTT6=
EXTT7=
EXTT8=
EXTT9=
EXTT10=
EXTT11=
EXTT12=
EXTT13=
EXTT14=
EXTT15=
EXTT16=
EXTT17=
PLAYORDER=
